<?xml version="1.0" encoding="utf-8"?>
<!-- Generator: Adobe Illustrator 25.0.1, SVG Export Plug-In . SVG Version: 6.00 Build 0)  -->
<svg version="1.1" id="Layer_1" xmlns="http://www.w3.org/2000/svg" xmlns:xlink="http://www.w3.org/1999/xlink" x="0px" y="0px"
	 viewBox="0 0 175 43" style="enable-background:new 0 0 175 43;" xml:space="preserve">
<style type="text/css">
	.st0{fill-rule:evenodd;clip-rule:evenodd;fill:#FFC10E;}
	.st1{fill:#231F20;}
</style>
<path class="st0" d="M175,21.5c0-5.1,0-7.1-2.1-9.2c-1.5-1.5-3.5-2.3-5.6-2.3s-4.2,0.8-5.6,2.3c-2.1,2.1-2.1,4.1-2.1,9.2
	s0,7.1,2.1,9.2c1.5,1.5,3.5,2.3,5.6,2.3s4.2-0.8,5.6-2.3C175,28.6,175,26.6,175,21.5 M156,32.8v-1.5h-12V10.2h-1.7v22.6H156z
	 M135.6,25.5V10.2h-1.7v15c0,3.7-2.4,6.2-6,6.2c-3.6,0-6-2.5-6-6.2v-15h-1.7v15.3c0,4.4,3.2,7.5,7.7,7.5
	C132.4,33,135.6,29.9,135.6,25.5z M115,32.8v-1.5h-12l12-19.5v-1.5h-13.3v1.5h11.4L101.3,31v1.8H115z M98.8,32.8l-8.3-22.6H89
	l-8.3,22.6h1.8l2-5.5H95l2,5.5H98.8z M78,30.2L76.9,29c-1.6,1.5-2.9,2.4-5.2,2.4c-1.6,0-3.2-0.6-4.3-1.7c-1.6-1.6-1.7-3.4-1.7-8.2
	c0-4.9,0.1-6.6,1.7-8.2c1.1-1.1,2.7-1.7,4.3-1.7c2.3,0,3.7,0.9,5.2,2.4l1.1-1.1c-1.8-1.8-3.7-2.9-6.4-2.9c-2.1,0-4.2,0.8-5.7,2.3
	c-2.1,2.1-2.1,4.1-2.1,9.2s0,7.1,2.1,9.2c1.5,1.5,3.5,2.3,5.7,2.3C74.3,33,76.2,31.9,78,30.2z"/>
<path class="st1" d="M52.3,21.1c-1.4-2.6-3.7-4.7-6.4-6s-3.7-4.8-6.7-6.4c-1.5-0.8-3.1-1.4-4.7-1.7c-1.1-1.3-3.3-1.7-4.8-2.5
	c-2.6-1.4-4.6-2.1-7.5-3.2c-3.2-1.1-6-1.8-9.2-1c-1.5,0.4-2.3,0.9-3.7,1.4C7.9,2.2,6.7,3.1,5.6,4c-5,4.2-6.1,10.3-4.9,16.4
	c0.8,3.7,2.4,6,5,8.6c2.1,2.1,4.2,4.4,7.1,5.4c1.7,0.5,3,2.2,4.4,3.2c1.4,0.9,2.8,1.8,4.3,2.6c3.3,1.7,6.7,2.8,10.4,2.8
	C42.2,43,59.1,33.5,52.3,21.1 M15.4,33.9c-1-0.7-2-1.5-2.7-2.6c3.1,1.2,5.8,2.5,9.2,2C19.7,34.2,17.6,34.6,15.4,33.9 M35.6,10.3
	c0.1,0.4,0.2,0.7,0.3,1.1c0.1,0.3-1.9,1-2.3,1.2c-0.3-1.7-0.8-3.3-1.5-4.8C34,8.1,34.5,8.6,35.6,10.3 M39.9,27.2
	c-2.2,0-1.2-5.7,0.9-5.2C44,22.7,42.6,27.2,39.9,27.2 M41.4,20.3c-1.9,0.1-3.2,3.1-3.5,4.7c-0.2,1.1,0,2.7,1.2,3.1
	c0.8,0.3,1.6-0.2,2.2-0.2c-2.6,3.7-7.3,6.4-12,5.7c6.2-4.4,9.8-11.1,8.5-18.9c2.2-0.1,3.9-0.3,4.9,1.9c0.7,1.8,0.9,3.7,0.5,5.6
	c-0.1,0-0.2,0-0.3,0C42.8,21.4,42.3,20.3,41.4,20.3 M20,35c1.1-0.2,2.1-0.6,3.1-1c-0.1,0.7,0.1,1.1-0.7,1.2
	C21.6,35.2,20.8,35.1,20,35 M11.7,29.3c-0.3-0.9-0.4-1.9-0.4-2.9c3.7,2.3,7,4,11.3,4.8C19.7,33.7,14.5,30.9,11.7,29.3 M30.3,9.7
	c0.4,0.8,0.7,1.6,0.9,2.4c0.6,1.8,0.5,1.8-0.8,3c-0.2-2.6-0.9-5.2-2.1-7.5C29.9,7.6,29.7,8.3,30.3,9.7 M33.8,13.9
	c1-0.6,2.4-1.7,2.7-0.2c-0.9,0.2-1.8,0.4-2.7,0.8C33.9,14.3,33.8,14.1,33.8,13.9 M27.3,7.6c1.1,2.1,1.7,4.4,2,6.6
	c0.3,2-0.3,2.4-1.4,3.9c-1,1.4-2,2.9-2.7,4.4c-0.6,1.3-1.1,2.7-1.3,4.1c-0.1,0.9,0.3,3.9-0.8,3.7c-2.8-0.5-5.4-1.4-7.9-2.8
	c-1.3-0.7-2.6-1.4-3.9-2.2c0.1-1.7,0.5-3.3,1-4.9c0.8-2.7,2.1-5.3,3.9-7.5C19,9.6,23,7.9,27.3,7.6 M25.8,34.3
	c-0.3,0.4-1.3,0.5-1.9,0.6c0.2-1.3,0.4-1.5,1.3-2.3c0.4,0.5,0.9,1,1.4,1.4C26.3,34.1,26.1,34.2,25.8,34.3 M33.5,22.6
	c-0.2-2.2,0.6-4.6,0.5-6.9c0.4-0.2,2.5-1.1,2.8-0.8c0.3,1.4,0.4,2.8,0.3,4.2c-0.2,3.5-1.3,6.3-3.4,9.1c-1,1.4-2.2,2.6-3.5,3.7
	c-1.6,1.2-2.6,1.8-4.2,0.2c1.6-1.4,3.7-2,5.3-3.9C32.5,26.7,33.3,24.4,33.5,22.6 M29.3,19c-0.3,3.7-1.8,7.6-4.4,10.5
	C24.7,25.9,27,21.4,29.3,19 M24.5,31.5L24.5,31.5 M32.5,19.8c-0.2,2.5-1.2,4.7-2.6,6.7c-0.9,1.2-2.6,4.1-4.4,3.9
	c1.5-1.9,2.9-3.9,3.8-6.1c0.6-1.4,0.9-2.9,1.1-4.5c0.2-1.8,0.3-2.2,1.9-3.2C32.4,17.6,32.6,18.7,32.5,19.8 M39.9,13.5
	c-1.2-0.1-2.1,0.5-2.5-0.8C38.3,12.7,39.6,12.9,39.9,13.5 M23.6,31.6L23.6,31.6 M5.4,8.7c-1.1,3.5-2.1,8.5-0.1,11.9
	c0.8,1.4,2.2,2.3,3.2,3.6c0.4,0.5,0.9,0.9,1.4,1.3c-0.1,0.9-0.1,1.9,0.1,2.8C6,25.7,3.6,21,2.6,16.4c-1-4.5,1-8,4.2-10.9
	C6.2,6.5,5.8,7.6,5.4,8.7 M42.3,13.9c-0.9-1.2-2.2-2.2-3.8-2.5c-1.2-0.2-1.3,0.4-1.8-0.8c-0.3-0.7-0.7-1.4-1.1-2.1
	c3.1,0.8,5.8,2.9,7.4,5.6C42.8,14,42.5,14,42.3,13.9 M25.3,4.8c0.5,0.5,0.9,1.1,1.3,1.7c-9,0.8-15.1,9.4-16.5,18
	c-2-1.7-3.8-3.4-4.4-5.8c-0.9-3.5-0.2-5.6,2.4-8C11.7,7.2,20.7,0.1,25.3,4.8 M16.7,2.2c1,0,2,0.1,3.1,0.3c-5.2,1.2-10.6,5-14,9
	c0.5-2.7,1.4-5.2,2.9-7.4C9.3,2.5,15.2,2.2,16.7,2.2 M7.8,28.7c1.3,0,3.1,2.6,4.1,3.9c-5.7-2.9-9.6-8.5-10-14.9
	C3.4,21.5,4.7,25.8,7.8,28.7 M23,36.1c0.8-0.2,1.7-0.4,2.5-0.6c0.8-0.2,1.6-0.5,2.4-0.9c0.8,0.3,1.6,0.4,2.5,0.4
	c2.9,0,5.9-1,8.2-2.6c5.1-3.6,8.1-10.3,6.5-16.4c3.9,1.8,7.4,5.4,7.7,9.9c0.4,4.7-3,8.6-6.6,11.2C42,40,37,41.8,31.9,41.8
	c-2.5,0-5-0.4-7.4-1.4c-2.6-1.1-4.4-3-6.7-4.6C19.6,35.9,21.3,36.1,23,36.1"/>
</svg>
