<svg width="188" height="230" fill="none" xmlns="http://www.w3.org/2000/svg"><path d="m94 188-1.18-71.471-8.646 70.956 6.297-71.203-16.015 69.664 13.705-70.155-23.209 67.608 20.963-68.337-30.148 64.811 27.991-65.772L47 175.406l34.713-62.486-42.965 57.128 41.054-58.516-48.7 52.324 46.946-53.904-53.904 46.946 52.324-48.701-58.516 41.055 57.128-42.965L12.594 141l61.305-36.758-65.772 27.991 64.811-30.148-68.337 20.963 67.608-23.209-70.155 13.705 69.664-16.015-71.203 6.297 70.956-8.645L0 94l71.47-1.18L.516 84.173l71.203 6.297L2.054 74.456 72.21 88.161 4.6 64.952l68.337 20.963L8.127 55.767l65.772 27.991L12.594 47 75.08 81.713 17.952 38.748l58.516 41.054-52.324-48.7 53.904 46.946-46.946-53.904 48.7 52.324-41.054-58.516L81.713 75.08 47 12.594l36.758 61.305L55.767 8.127l30.148 64.811L64.952 4.601l23.209 67.608L74.456 2.054l16.015 69.664L84.174.515 92.82 71.47 94 0l1.18 71.47L103.827.516l-6.297 71.203 16.015-69.664L99.839 72.21 123.048 4.6l-20.963 68.337 30.148-64.811-27.991 65.772L141 12.594 106.287 75.08l42.965-57.128-41.055 58.516 48.701-52.324-46.946 53.904 53.904-46.946-52.324 48.7 58.516-41.054-57.128 42.965L175.406 47l-61.305 36.758 65.772-27.991-64.811 30.148 68.337-20.963-67.608 23.209 70.155-13.705-69.664 16.015 71.203-6.297-70.956 8.645L188 94l-71.471 1.18 70.956 8.646-71.203-6.297 69.664 16.015-70.155-13.705 67.608 23.209-68.337-20.963 64.811 30.148-65.772-27.991L175.406 141l-62.486-34.713 57.128 42.965-58.516-41.055 52.324 48.701-53.904-46.946 46.946 53.904-48.701-52.324 41.055 58.516-42.965-57.128L141 175.406l-36.758-61.305 27.991 65.772-30.148-64.811 20.963 68.337-23.209-67.608 13.705 70.155-16.015-69.664 6.297 71.203-8.645-70.956L94 188Z" fill="#97E2FE"/><path d="M12 175V81l82.005-47L176 81v94l-81.995 47L12 175Z" fill="url(#a)"/><path d="M12 175V81l82.005-47L176 81v94l-81.995 47L12 175Z" fill="url(#b)" fill-opacity=".8"/><path fill-rule="evenodd" clip-rule="evenodd" d="M9 159.795v-64.15c-.001-5.226-.002-8.59 1.063-11.64a19 19 0 0 1 3.581-6.18c2.116-2.44 5.036-4.113 9.57-6.71l.486-.279 55.765-31.96.48-.276c4.487-2.573 7.376-4.23 10.521-4.826a19.001 19.001 0 0 1 7.078 0c3.145.597 6.034 2.254 10.52 4.827.159.09.319.183.481.276l55.756 31.96.487.278c4.534 2.597 7.453 4.27 9.569 6.71a19.001 19.001 0 0 1 3.58 6.18c1.065 3.049 1.065 6.413 1.063 11.638V160.357c.002 5.225.002 8.589-1.063 11.639a19.007 19.007 0 0 1-3.58 6.179c-2.116 2.44-5.035 4.113-9.569 6.71l-.487.279-55.756 31.959-.481.276c-4.486 2.573-7.375 4.23-10.52 4.827-2.338.443-4.74.443-7.078 0-3.145-.596-6.034-2.253-10.52-4.826l-.481-.276-55.765-31.96-.486-.279c-4.534-2.597-7.454-4.27-9.57-6.71a19 19 0 0 1-3.58-6.18c-1.066-3.049-1.065-6.414-1.064-11.639v-.561Zm6.91 16.414c1.779 2.051 4.28 3.485 9.282 6.352l55.764 31.96c4.95 2.838 7.426 4.256 10.069 4.757 1.97.374 3.991.373 5.96 0 2.643-.501 5.118-1.92 10.069-4.757l55.755-31.96c5.002-2.867 7.503-4.3 9.281-6.351a16 16 0 0 0 3.015-5.204c.895-2.562.895-5.445.895-11.21V96.204c0-5.765 0-8.647-.895-11.21a15.996 15.996 0 0 0-3.015-5.204c-1.778-2.05-4.279-3.484-9.281-6.351l-55.755-31.96c-4.951-2.837-7.426-4.256-10.069-4.757a16 16 0 0 0-5.96 0c-2.643.5-5.118 1.92-10.069 4.757l-55.764 31.96c-5.002 2.867-7.503 4.3-9.281 6.352a15.998 15.998 0 0 0-3.015 5.203C12 87.557 12 90.44 12 96.205v63.59c0 5.765 0 8.648.896 11.211a15.998 15.998 0 0 0 3.015 5.203Z" fill="url(#c)"/><g style="mix-blend-mode:soft-light"><mask id="d" style="mask-type:alpha" maskUnits="userSpaceOnUse" x="12" y="36" width="164" height="184"><path d="M20.044 179.61A15.999 15.999 0 0 1 12 165.729V90.271a16 16 0 0 1 8.044-13.881l66.004-37.83a16 16 0 0 1 15.913 0l65.996 37.83A16 16 0 0 1 176 90.27v75.459c0 5.734-3.068 11.03-8.043 13.881l-65.996 37.829a16 16 0 0 1-15.913.001l-66.004-37.83Z" fill="#000"/></mask><g mask="url(#d)"><path d="M218.268-6.78 90.073 49.032l46.32-55.81h81.875Z" fill="url(#e)"/><path d="m60.063-6.78 30.01 55.811L-45.3-6.779H60.063Z" fill="url(#f)"/><path d="m136.393-6.78-46.32 55.811-30.01-55.81h76.33Z" fill="url(#g)"/><path d="m261 166.561-95.25-63.689L230.99-6.779h5.871L261 119.287v47.274Z" fill="url(#h)"/><path d="M90.272 48 166 104-7 91.366 90.272 48Z" fill="url(#i)"/><path d="m230.99-6.78-65.24 109.652-75.677-53.84L218.268-6.78h12.722Z" fill="url(#j)"/><path d="M-45.3-6.78 90.074 49.032l-96.88 42.022L-71.07-6.779h25.77Z" fill="url(#k)"/><path d="m165.751 102.872 87.094 105.383-137.981 19.698 50.887-125.081Z" fill="url(#l)"/><path d="m165.75 102.872 95.25 63.69v26.263l-8.155 15.43-87.095-105.383Z" fill="url(#m)"/><path d="m-48.235 272.273 41.427-181.22 121.672 136.9-146.789 44.32h-16.31Z" fill="url(#n)"/><path d="m-6.808 91.053 121.672 136.9 50.886-125.081L-6.808 91.053Z" fill="url(#o)"/><path d="m117.473 272.273-2.609-44.32 137.981-19.698-42.732 64.018h-92.64Z" fill="url(#p)"/><path d="M34.597-22h81.543c25.658 9.232 47.098 26.275 61.86 49v139.899C155.857 200.63 118.249 223 75.369 223 7.182 223-48 166.543-48 97.304-48 41.913-13.555-4.956 34.597-22Z" fill="url(#q)" style="mix-blend-mode:screen" opacity=".96"/><path d="M76.408 272.273H6.928c-11.743-3.94-22.834-9.521-32.62-16.743V67.415c18.92-14.116 42.08-22.324 67.197-22.324 63.282 0 114.495 52.2 114.495 116.217 0 51.871-33.272 95.863-79.592 110.965Z" fill="url(#r)" style="mix-blend-mode:screen"/><path d="M-17.708-6.78h165.382c0 2.299.326 4.597.326 6.895 0 64.346-51.213 116.217-114.495 116.217-18.267 0-35.882-4.268-51.213-12.147V-6.779Z" fill="url(#s)" style="mix-blend-mode:screen"/><path d="M-40.51 272.272c-5.545-13.788-8.48-28.561-8.48-44.32 0-64.346 51.213-116.217 114.495-116.217 63.282 0 114.495 52.2 114.495 116.217 0 15.759-2.936 30.532-8.481 44.32H-40.509Z" fill="url(#t)" style="mix-blend-mode:screen"/></g></g><path d="M48.24 170c-9.565 0-14.348 0-17.948-1.979a16 16 0 0 1-6.313-6.313C22 158.108 22 153.326 22 143.76v-41.233c0-5.761 0-8.642.894-11.203a16 16 0 0 1 3.012-5.201c1.776-2.051 4.274-3.485 9.27-6.353L80.94 53.5c4.956-2.845 7.434-4.268 10.08-4.77a16 16 0 0 1 5.968 0c2.646.502 5.124 1.925 10.08 4.77l45.757 26.27c4.996 2.868 7.494 4.302 9.27 6.352a16.001 16.001 0 0 1 3.011 5.201c.894 2.562.894 5.442.894 11.203v41.234c0 9.566 0 14.348-1.979 17.948a16 16 0 0 1-6.313 6.313C154.108 170 149.325 170 139.76 170H48.24Z" fill="#fff"/><mask id="v" style="mask-type:alpha" maskUnits="userSpaceOnUse" x="22" y="48" width="144" height="122"><path d="M48.24 170c-9.565 0-14.348 0-17.948-1.979a16 16 0 0 1-6.313-6.313C22 158.108 22 153.326 22 143.76v-41.233c0-5.761 0-8.642.894-11.203a16 16 0 0 1 3.012-5.201c1.776-2.051 4.274-3.485 9.27-6.353L80.94 53.5c4.956-2.845 7.434-4.268 10.08-4.77a16 16 0 0 1 5.968 0c2.646.502 5.124 1.925 10.08 4.77l45.757 26.27c4.996 2.868 7.494 4.302 9.27 6.352a16.001 16.001 0 0 1 3.011 5.201c.894 2.562.894 5.442.894 11.203v41.234c0 9.566 0 14.348-1.979 17.948a16 16 0 0 1-6.313 6.313C154.108 170 149.325 170 139.76 170H48.24Z" fill="url(#u)"/></mask><g mask="url(#v)"><path opacity=".06" fill="#495557" d="M22 46h72v124H22z"/></g><path opacity=".32" d="M77.445 74h8.993a82.983 82.983 0 0 1-2.016 10.666c-.069.284-.146.567-.215.858a105.479 105.479 0 0 1-2.317 7.723c-2.402-5.56-4.445-12.34-4.445-19.247ZM125.294 74c0 13.498-7.783 26.473-10.838 30.978a3.906 3.906 0 0 1-3.227 1.716H91.493a4.116 4.116 0 0 1-.918-.112l.309-.72c1.295-3.012 2.505-6.222 3.62-9.534.198-.61.404-1.219.593-1.828.189-.609.378-1.184.558-1.785.497-1.647.987-3.338 1.433-5.028.249-.953.498-1.922.738-2.892l.068-.283c1.433-5.895 2-9.808 2.025-9.971l.078-.541h25.297Z" fill="#1984CF"/><path opacity=".9" d="M94.668 83.722c1.407-5.809 1.957-9.662 1.957-9.662H89.76a86.736 86.736 0 0 1-2.137 11.421c-.069.292-.146.584-.223.859a126.575 126.575 0 0 1-3.578 11.378 127.263 127.263 0 0 1-1.57 4.093l-.232-.249-.155-.154a60.196 60.196 0 0 1-4.625-9.173l-.129-.318a52.52 52.52 0 0 1-.686-1.793 63.498 63.498 0 0 1-3.656-15.952v-.052H62v5.466h4.625c.659 3.5 1.591 6.944 2.79 10.298a64.125 64.125 0 0 0 8.966 16.819c.163.231.352.446.54.669l.335.36.327.318a513.792 513.792 0 0 1-1.717 3.552l-.549 1.082a116.075 116.075 0 0 1-3.21 5.818h6.282c1.399-2.094 2.678-4.291 3.862-6.488a94.38 94.38 0 0 0 3.578-7.483 121.198 121.198 0 0 0 4.102-11.06l.549-1.717c.523-1.716.987-3.364 1.399-4.917.257-.99.497-1.933.72-2.832.026-.128.043-.188.07-.283ZM74.932 130a4.17 4.17 0 1 0 0-8.34 4.17 4.17 0 0 0 0 8.34ZM112.551 130a4.17 4.17 0 1 0 .002-8.34 4.17 4.17 0 0 0-.002 8.34Z" fill="#1984CF" fill-opacity=".8"/><g filter="url(#w)" fill="#fff"><path opacity=".72" d="M45 176v6.634-.001l-1.853-2.682L45 176Z"/><path opacity=".92" d="M46.855 179.95 45 182.634v-6.633l.005.011 1.849 3.938Z"/><path opacity=".8" d="m51 180.584-6 2.05 1.855-2.683 4.145.633Z"/><path opacity=".6" d="m51 180.584-3 3.075-3-1.025 6-2.05Z"/><path opacity=".4" d="m48.708 188-3.707-2.049v-3.317L48.708 188ZM45 182.634 41.292 188l.708-4.341 3-1.025Z"/><path opacity=".24" d="M45 182.633v.001l-3 1.025-3-3.075 6 2.049Z"/><path opacity=".6" d="m45 182.633-6-2.049 4.146-.633L45 182.633Z"/><path opacity=".92" d="m48.708 188-.014-.02L45 182.634l3 1.025.704 4.315.004.026Z"/><path opacity=".72" d="M45 182.634v3.317L41.293 188 45 182.634Z"/></g><g filter="url(#x)" fill="#fff"><path opacity=".72" d="M64.001 177v11.057H64v-.002l-3.088-4.471L64 177Z"/><path opacity=".92" d="m67.091 183.584-3.09 4.473v-11.055l.009.019 3.081 6.563Z"/><path opacity=".8" d="m74 184.64-9.999 3.417 3.09-4.473 6.91 1.056Z"/><path opacity=".6" d="m74 184.64-5 5.125-4.999-1.708 10-3.417Z"/><path opacity=".4" d="m70.18 197-6.179-3.415v-5.528l6.18 8.943ZM64 188.057 57.82 197l1.18-7.235 5-1.708Z"/><path opacity=".24" d="M64 188.055v.002l-5 1.708-5-5.125 10 3.415Z"/><path opacity=".6" d="m64 188.055-10-3.415 6.91-1.056 3.09 4.471Z"/><path opacity=".92" d="m70.18 197-.023-.034L64 188.057l5 1.708 1.172 7.191.007.044Z"/><path opacity=".72" d="M64.001 188.057v5.528L57.82 197l6.18-8.943H64Z"/></g><g filter="url(#y)" fill="#fff"><path opacity=".72" d="M143.001 176v6.634H143v-.001l-1.854-2.682 1.855-3.951Z"/><path opacity=".92" d="M144.855 179.95 143 182.634v-6.633l.006.011 1.849 3.938Z"/><path opacity=".8" d="m149 180.584-6 2.05 1.855-2.683 4.145.633Z"/><path opacity=".6" d="m149 180.584-3 3.075-3-1.025 6-2.05Z"/><path opacity=".4" d="M146.708 188 143 185.951v-3.317l3.708 5.366ZM143 182.634 139.292 188l.708-4.341 3-1.025Z"/><path opacity=".24" d="M142.999 182.633v.001L140 183.659l-3-3.075 5.999 2.049Z"/><path opacity=".6" d="M142.999 182.633 137 180.584l4.146-.633 1.853 2.682Z"/><path opacity=".92" d="m146.708 188-.014-.02-3.694-5.346 3 1.025.704 4.315.004.026Z"/><path opacity=".72" d="M143.001 182.634v3.317L139.292 188l3.708-5.366h.001Z"/></g><g filter="url(#z)" fill="#fff"><path opacity=".72" d="M124.001 177v11.057h-.002v-.002l-3.088-4.471 3.09-6.584Z"/><path opacity=".92" d="m127.092 183.584-3.091 4.473v-11.055l.009.019 3.082 6.563Z"/><path opacity=".8" d="m134 184.64-9.999 3.417 3.091-4.473L134 184.64Z"/><path opacity=".6" d="m134 184.64-4.999 5.125-5-1.708L134 184.64Z"/><path opacity=".4" d="m130.18 197-6.179-3.415v-5.528L130.18 197ZM123.999 188.057 117.82 197l1.18-7.235 4.999-1.708Z"/><path opacity=".24" d="M123.999 188.055v.002L119 189.765l-5-5.125 9.999 3.415Z"/><path opacity=".6" d="M123.999 188.055 114 184.64l6.91-1.056 3.089 4.471Z"/><path opacity=".92" d="m130.18 197-.023-.034-6.156-8.909 5 1.708 1.172 7.191.007.044Z"/><path opacity=".72" d="M124.001 188.057v5.528L117.82 197l6.179-8.943h.002Z"/></g><g filter="url(#A)" fill="#fff"><path opacity=".8" d="m88.632 192.181 5.53-7.278 5.529 7.278H88.632Z"/><path opacity=".32" d="m79 192.181 4.103-7.278 5.53 7.278H79Z"/><path opacity=".92" d="m109.322 192.181-4.1-7.278-5.532 7.278h9.632Z"/><path opacity=".72" d="m105.222 184.903-5.532 7.278-5.529-7.278h11.061Z"/><path opacity=".6" d="m94.162 184.903-5.53 7.278-5.529-7.278h11.059Z"/><path opacity=".4" d="m79 192.181 15.161 17.532-5.529-17.532H79ZM99.69 192.181l-5.529 17.532 15.161-17.532H99.69Z"/><path opacity=".88" d="m88.632 192.181 5.53 17.532 5.529-17.532H88.632Z"/></g><path d="M0 143.28c0-1.196 0-1.794.247-2.244.183-.332.457-.606.79-.789C1.486 140 2.083 140 3.28 140h181.44c1.196 0 1.794 0 2.244.247.332.183.606.457.789.789.247.45.247 1.048.247 2.244v25.44c0 1.196 0 1.794-.247 2.244a2.009 2.009 0 0 1-.789.789c-.45.247-1.048.247-2.244.247H3.28c-1.196 0-1.794 0-2.244-.247a2.005 2.005 0 0 1-.789-.789C0 170.514 0 169.916 0 168.72v-25.44Z" fill="url(#B)"/><g opacity=".92" fill="#fff"><path d="M17.794 161v-10.464h3.296c.576 0 1.11.054 1.6.16.501.107.933.288 1.296.544.363.256.645.592.848 1.008.203.406.304.912.304 1.52 0 .576-.101 1.078-.304 1.504a2.98 2.98 0 0 1-.848 1.072 3.574 3.574 0 0 1-1.264.624 6.072 6.072 0 0 1-1.568.192H19.65V161h-1.856Zm1.856-5.328h1.36c1.536 0 2.304-.634 2.304-1.904 0-.661-.203-1.114-.608-1.36-.395-.256-.981-.384-1.76-.384H19.65v3.648ZM29.094 155.432l-.368 1.28h2.672l-.368-1.28a54.413 54.413 0 0 1-.496-1.712l-.448-1.744h-.064c-.15.587-.3 1.174-.448 1.76-.15.576-.31 1.142-.48 1.696ZM25.59 161l3.408-10.464h2.176L34.582 161H32.63l-.816-2.832h-3.52L27.478 161H25.59ZM36.511 161v-10.464h3.536c.544 0 1.051.054 1.52.16.47.107.875.283 1.216.528.342.235.608.55.8.944.203.395.304.886.304 1.472 0 .8-.192 1.446-.576 1.936-.373.491-.874.843-1.504 1.056L44.303 161h-2.08l-2.256-4.096h-1.6V161h-1.856Zm1.856-5.568h1.488c.715 0 1.26-.149 1.632-.448.384-.298.576-.746.576-1.344 0-.608-.192-1.029-.576-1.264-.373-.234-.917-.352-1.632-.352h-1.488v3.408ZM50.796 161.192c-.661 0-1.28-.117-1.856-.352a4.179 4.179 0 0 1-1.504-1.04c-.416-.458-.746-1.024-.992-1.696-.245-.672-.368-1.44-.368-2.304 0-.853.123-1.616.368-2.288.256-.682.597-1.258 1.024-1.728a4.448 4.448 0 0 1 1.52-1.072 4.81 4.81 0 0 1 1.872-.368c.662 0 1.248.134 1.76.4.512.267.934.576 1.264.928l-.992 1.2a3.457 3.457 0 0 0-.896-.656 2.284 2.284 0 0 0-1.088-.256c-.427 0-.821.091-1.184.272a2.715 2.715 0 0 0-.928.752c-.256.32-.459.715-.608 1.184-.139.47-.208.998-.208 1.584 0 1.195.256 2.134.768 2.816.523.672 1.227 1.008 2.112 1.008.47 0 .886-.096 1.248-.288.363-.202.694-.464.992-.784l.992 1.168c-.426.491-.917.87-1.472 1.136-.544.256-1.152.384-1.824.384ZM56.479 161v-10.464h6.304v1.568h-4.448v2.672h3.76v1.568h-3.76v3.088h4.608V161h-6.464ZM65.728 161v-10.464h1.856V161h-1.856ZM70.884 161v-10.464h3.536c.544 0 1.05.054 1.52.16.47.107.875.283 1.216.528.341.235.608.55.8.944.203.395.304.886.304 1.472 0 .8-.192 1.446-.576 1.936-.373.491-.875.843-1.504 1.056L78.676 161h-2.08l-2.256-4.096h-1.6V161h-1.856Zm1.856-5.568h1.488c.715 0 1.259-.149 1.632-.448.384-.298.576-.746.576-1.344 0-.608-.192-1.029-.576-1.264-.373-.234-.917-.352-1.632-.352H72.74v3.408ZM85.057 161.192a4.642 4.642 0 0 1-1.872-.368 4.171 4.171 0 0 1-1.456-1.088 5.188 5.188 0 0 1-.944-1.728c-.224-.672-.336-1.434-.336-2.288 0-.842.112-1.594.336-2.256.224-.672.538-1.237.944-1.696a4.11 4.11 0 0 1 1.456-1.056 4.659 4.659 0 0 1 1.872-.368c.682 0 1.306.123 1.872.368a4.11 4.11 0 0 1 1.456 1.056c.416.459.736 1.024.96 1.696.224.662.336 1.414.336 2.256 0 .854-.112 1.616-.336 2.288a5.034 5.034 0 0 1-.96 1.728c-.406.47-.891.832-1.456 1.088a4.642 4.642 0 0 1-1.872.368Zm0-1.616c.416 0 .789-.09 1.12-.272.33-.181.613-.437.848-.768.234-.341.416-.746.544-1.216.128-.48.192-1.013.192-1.6 0-1.173-.246-2.09-.736-2.752-.48-.672-1.136-1.008-1.968-1.008-.832 0-1.494.336-1.984 1.008-.48.662-.72 1.579-.72 2.752 0 .587.064 1.12.192 1.6.128.47.309.875.544 1.216.234.331.517.587.848.768.33.182.704.272 1.12.272ZM96.257 161v-10.464h2.8c1.6 0 2.848.432 3.744 1.296.896.864 1.344 2.16 1.344 3.888 0 .864-.117 1.627-.352 2.288-.224.662-.555 1.216-.992 1.664a4.1 4.1 0 0 1-1.568.992c-.608.224-1.301.336-2.08.336h-2.896Zm1.856-1.504h.816c1.067 0 1.883-.304 2.448-.912.576-.618.864-1.573.864-2.864 0-1.28-.288-2.213-.864-2.8-.576-.586-1.392-.88-2.448-.88h-.816v7.456ZM106.897 161v-10.464h1.856V161h-1.856ZM114.197 155.432l-.368 1.28h2.672l-.368-1.28a53.62 53.62 0 0 1-.496-1.712c-.15-.586-.299-1.168-.448-1.744h-.064l-.448 1.76c-.15.576-.31 1.142-.48 1.696ZM110.693 161l3.408-10.464h2.176L119.685 161h-1.952l-.816-2.832h-3.52l-.816 2.832h-1.888ZM121.615 161v-10.464h2.096l1.856 5.12c.117.331.229.672.336 1.024.106.342.218.683.336 1.024h.064c.117-.341.224-.682.32-1.024.106-.352.218-.693.336-1.024l1.808-5.12h2.112V161h-1.712v-4.784c0-.245.005-.512.016-.8l.064-.864c.021-.298.048-.586.08-.864.032-.288.058-.554.08-.8h-.064l-.848 2.432-1.712 4.704h-1.104l-1.728-4.704-.832-2.432h-.064c.021.246.042.512.064.8.032.278.058.566.08.864.032.288.053.576.064.864.021.288.032.555.032.8V161h-1.68ZM136.32 155.432l-.368 1.28h2.672l-.368-1.28a56.36 56.36 0 0 1-.496-1.712 312.66 312.66 0 0 0-.448-1.744h-.064l-.448 1.76a38.134 38.134 0 0 1-.48 1.696ZM132.816 161l3.408-10.464h2.176L141.808 161h-1.952l-.816-2.832h-3.52l-.816 2.832h-1.888ZM143.738 161v-10.464h1.904l3.264 5.888 1.072 2.224h.064a67.834 67.834 0 0 0-.16-1.744 21.743 21.743 0 0 1-.08-1.824v-4.544h1.776V161h-1.904l-3.264-5.888-1.072-2.224h-.064c.043.555.091 1.136.144 1.744.064.608.096 1.206.096 1.792V161h-1.776ZM156.99 161v-8.896h-3.024v-1.568h7.904v1.568h-3.024V161h-1.856ZM164.253 161v-10.464h6.304v1.568h-4.448v2.672h3.76v1.568h-3.76v3.088h4.608V161h-6.464Z"/></g><defs><linearGradient id="a" x1="266.5" y1="-28" x2="86" y2="145.5" gradientUnits="userSpaceOnUse"><stop stop-color="#9AF2FE"/><stop offset="1" stop-color="#3A72BF"/></linearGradient><linearGradient id="b" x1="40" y1="114" x2="168.966" y2="96.578" gradientUnits="userSpaceOnUse"><stop stop-color="#00489D"/><stop offset="1" stop-color="#6DC3F2"/></linearGradient><linearGradient id="c" x1="176" y1="-1.5" x2="-51.5" y2="163.5" gradientUnits="userSpaceOnUse"><stop stop-color="#40B0F0"/><stop offset="1" stop-color="#0F619B"/></linearGradient><linearGradient id="e" x1="135.126" y1="9.112" x2="197.324" y2="47.56" gradientUnits="userSpaceOnUse"><stop stop-color="#50A9E1"/><stop offset="1" stop-color="#6FC8FF"/></linearGradient><linearGradient id="f" x1="97.542" y1="31.058" x2="-73.07" y2="-39.582" gradientUnits="userSpaceOnUse"><stop stop-color="#9CD5F0"/><stop offset="1" stop-color="#C9FFFF"/></linearGradient><linearGradient id="g" x1="67.891" y1="30.497" x2="151.398" y2="-70.741" gradientUnits="userSpaceOnUse"><stop stop-color="#74C1EB"/><stop offset="1" stop-color="#88D5FF"/></linearGradient><linearGradient id="h" x1="307.193" y1="120.216" x2="202.986" y2="50.096" gradientUnits="userSpaceOnUse"><stop stop-color="#1C79BC"/><stop offset="1" stop-color="#53B0F3"/></linearGradient><linearGradient id="i" x1="-6.866" y1="-69.044" x2="147.837" y2="136.437" gradientUnits="userSpaceOnUse"><stop stop-color="#5FBAE9"/><stop offset="1" stop-color="#88E3FF"/></linearGradient><linearGradient id="j" x1="126.433" y1="79.809" x2="195.763" y2="-37.806" gradientUnits="userSpaceOnUse"><stop stop-color="#3A9AD4"/><stop offset="1" stop-color="#4EAEE8"/></linearGradient><linearGradient id="k" x1="-36.243" y1="-50.127" x2="37.476" y2="63.089" gradientUnits="userSpaceOnUse"><stop stop-color="#83D2F3"/><stop offset="1" stop-color="#CFF"/></linearGradient><linearGradient id="l" x1="244.432" y1="150.604" x2="106.634" y2="170.354" gradientUnits="userSpaceOnUse"><stop stop-color="#2585BF"/><stop offset="1" stop-color="#54B4EE"/></linearGradient><linearGradient id="m" x1="197.175" y1="179.065" x2="215.296" y2="144.753" gradientUnits="userSpaceOnUse"><stop stop-color="#1A7AB6"/><stop offset="1" stop-color="#54B4F0"/></linearGradient><linearGradient id="n" x1="90.606" y1="148.17" x2="-73.424" y2="198.085" gradientUnits="userSpaceOnUse"><stop stop-color="#5FB3DF"/><stop offset="1" stop-color="#B4FFFF"/></linearGradient><linearGradient id="o" x1="39.346" y1="197.456" x2="89.897" y2="72.348" gradientUnits="userSpaceOnUse"><stop stop-color="#4AAADD"/><stop offset="1" stop-color="#99F9FF"/></linearGradient><linearGradient id="p" x1="83.675" y1="371.186" x2="210.25" y2="180.245" gradientUnits="userSpaceOnUse"><stop stop-color="#186DA4"/><stop offset="1" stop-color="#4297CE"/></linearGradient><linearGradient id="u" x1="181.668" y1="31.989" x2="7.92" y2="182.623" gradientUnits="userSpaceOnUse"><stop stop-color="#fff"/><stop offset="1" stop-color="#fff"/></linearGradient><linearGradient id="B" x1="255" y1="114.5" x2="12.201" y2="257.703" gradientUnits="userSpaceOnUse"><stop stop-color="#0F4A72"/><stop offset="1" stop-color="#0A6DB3"/></linearGradient><filter id="w" x="21" y="168" width="40" height="40" filterUnits="userSpaceOnUse" color-interpolation-filters="sRGB"><feFlood flood-opacity="0" result="BackgroundImageFix"/><feColorMatrix in="SourceAlpha" values="0 0 0 0 0 0 0 0 0 0 0 0 0 0 0 0 0 0 127 0" result="hardAlpha"/><feOffset dx="-4" dy="6"/><feGaussianBlur stdDeviation="7"/><feComposite in2="hardAlpha" operator="out"/><feColorMatrix values="0 0 0 0 0.117647 0 0 0 0 0.403922 0 0 0 0 0.603922 0 0 0 0.16 0"/><feBlend in2="BackgroundImageFix" result="effect1_dropShadow_1264_38038"/><feBlend in="SourceGraphic" in2="effect1_dropShadow_1264_38038" result="shape"/></filter><filter id="x" x="36" y="169" width="48" height="48" filterUnits="userSpaceOnUse" color-interpolation-filters="sRGB"><feFlood flood-opacity="0" result="BackgroundImageFix"/><feColorMatrix in="SourceAlpha" values="0 0 0 0 0 0 0 0 0 0 0 0 0 0 0 0 0 0 127 0" result="hardAlpha"/><feOffset dx="-4" dy="6"/><feGaussianBlur stdDeviation="7"/><feComposite in2="hardAlpha" operator="out"/><feColorMatrix values="0 0 0 0 0.117647 0 0 0 0 0.403922 0 0 0 0 0.603922 0 0 0 0.16 0"/><feBlend in2="BackgroundImageFix" result="effect1_dropShadow_1264_38038"/><feBlend in="SourceGraphic" in2="effect1_dropShadow_1264_38038" result="shape"/></filter><filter id="y" x="119" y="168" width="40" height="40" filterUnits="userSpaceOnUse" color-interpolation-filters="sRGB"><feFlood flood-opacity="0" result="BackgroundImageFix"/><feColorMatrix in="SourceAlpha" values="0 0 0 0 0 0 0 0 0 0 0 0 0 0 0 0 0 0 127 0" result="hardAlpha"/><feOffset dx="-4" dy="6"/><feGaussianBlur stdDeviation="7"/><feComposite in2="hardAlpha" operator="out"/><feColorMatrix values="0 0 0 0 0.117647 0 0 0 0 0.403922 0 0 0 0 0.603922 0 0 0 0.16 0"/><feBlend in2="BackgroundImageFix" result="effect1_dropShadow_1264_38038"/><feBlend in="SourceGraphic" in2="effect1_dropShadow_1264_38038" result="shape"/></filter><filter id="z" x="96" y="169" width="48" height="48" filterUnits="userSpaceOnUse" color-interpolation-filters="sRGB"><feFlood flood-opacity="0" result="BackgroundImageFix"/><feColorMatrix in="SourceAlpha" values="0 0 0 0 0 0 0 0 0 0 0 0 0 0 0 0 0 0 127 0" result="hardAlpha"/><feOffset dx="-4" dy="6"/><feGaussianBlur stdDeviation="7"/><feComposite in2="hardAlpha" operator="out"/><feColorMatrix values="0 0 0 0 0.117647 0 0 0 0 0.403922 0 0 0 0 0.603922 0 0 0 0.16 0"/><feBlend in2="BackgroundImageFix" result="effect1_dropShadow_1264_38038"/><feBlend in="SourceGraphic" in2="effect1_dropShadow_1264_38038" result="shape"/></filter><filter id="A" x="61" y="174" width="58.322" height="58" filterUnits="userSpaceOnUse" color-interpolation-filters="sRGB"><feFlood flood-opacity="0" result="BackgroundImageFix"/><feColorMatrix in="SourceAlpha" values="0 0 0 0 0 0 0 0 0 0 0 0 0 0 0 0 0 0 127 0" result="hardAlpha"/><feOffset dx="-4" dy="6"/><feGaussianBlur stdDeviation="7"/><feComposite in2="hardAlpha" operator="out"/><feColorMatrix values="0 0 0 0 0.117647 0 0 0 0 0.403922 0 0 0 0 0.603922 0 0 0 0.24 0"/><feBlend in2="BackgroundImageFix" result="effect1_dropShadow_1264_38038"/><feBlend in="SourceGraphic" in2="effect1_dropShadow_1264_38038" result="shape"/></filter><radialGradient id="q" cx="0" cy="0" r="1" gradientUnits="userSpaceOnUse" gradientTransform="matrix(-123.326 0 0 -125.828 75.44 96.758)"><stop stop-color="#82D9F4"/><stop offset=".33" stop-color="#52899A"/><stop offset=".658" stop-color="#263F47"/><stop offset=".888" stop-color="#0B1214"/><stop offset="1"/></radialGradient><radialGradient id="r" cx="0" cy="0" r="1" gradientUnits="userSpaceOnUse" gradientTransform="matrix(-114.458 0 0 -116.342 41.656 161.409)"><stop stop-color="#82D9F4"/><stop offset=".129" stop-color="#68AEC4"/><stop offset=".303" stop-color="#497A89"/><stop offset=".471" stop-color="#2F4E58"/><stop offset=".629" stop-color="#1B2C32"/><stop offset=".775" stop-color="#0C1416"/><stop offset=".903" stop-color="#030506"/><stop offset="1"/></radialGradient><radialGradient id="s" cx="0" cy="0" r="1" gradientUnits="userSpaceOnUse" gradientTransform="matrix(-114.458 0 0 -116.342 33.414 .175)"><stop stop-color="#82D9F4"/><stop offset=".129" stop-color="#68AEC4"/><stop offset=".303" stop-color="#497A89"/><stop offset=".471" stop-color="#2F4E58"/><stop offset=".629" stop-color="#1B2C32"/><stop offset=".775" stop-color="#0C1416"/><stop offset=".903" stop-color="#030506"/><stop offset="1"/></radialGradient><radialGradient id="t" cx="0" cy="0" r="1" gradientUnits="userSpaceOnUse" gradientTransform="matrix(-114.453 0 0 -116.337 65.207 227.986)"><stop stop-color="#82D9F4"/><stop offset=".129" stop-color="#68AEC4"/><stop offset=".303" stop-color="#497A89"/><stop offset=".471" stop-color="#2F4E58"/><stop offset=".629" stop-color="#1B2C32"/><stop offset=".775" stop-color="#0C1416"/><stop offset=".903" stop-color="#030506"/><stop offset="1"/></radialGradient></defs></svg>